<?xml version="1.0" encoding="UTF-8"?>
<svg version="1.1" xmlns="http://www.w3.org/2000/svg" width="1200" height="630">
<path d="M0 0 C396 0 792 0 1200 0 C1200 207.9 1200 415.8 1200 630 C804 630 408 630 0 630 C0 422.1 0 214.2 0 0 Z " fill="#FEFEFE" transform="translate(0,0)"/>
<path d="M0 0 C2.32641602 1.14477539 2.32641602 1.14477539 4.75390625 2.59765625 C5.67623047 3.14357422 6.59855469 3.68949219 7.54882812 4.25195312 C8.54333984 4.84943359 9.53785156 5.44691406 10.5625 6.0625 C12.72971204 7.34633034 14.89771303 8.62882957 17.06640625 9.91015625 C18.20094238 10.58191895 19.33547852 11.25368164 20.50439453 11.94580078 C25.71508008 15.01805902 30.97459056 18.00477834 36.23269653 20.99487305 C46.52870913 26.85057353 56.78651236 32.76846619 67.00976562 38.75048828 C74.82339995 43.32070244 82.65753913 47.8545037 90.5 52.375 C91.08187073 52.71040802 91.66374146 53.04581604 92.26324463 53.39138794 C95.50836509 55.26173257 98.75396704 57.13123954 102 59 C100.74596192 62.76211424 99.73431391 62.98609014 96.3125 64.828125 C95.31468506 65.37388184 94.31687012 65.91963867 93.28881836 66.48193359 C92.2035083 67.06539551 91.11819824 67.64885742 90 68.25 C87.72863084 69.49404606 85.4591561 70.74155603 83.19140625 71.9921875 C82.6057338 72.31486603 82.02006134 72.63754456 81.41664124 72.97000122 C74.83055448 76.6165035 68.38110199 80.48378243 61.9375 84.375 C60.84373047 85.03532227 59.74996094 85.69564453 58.62304688 86.37597656 C56.08018204 87.91430336 53.53903032 89.45535519 51 91 C67.63235668 100.72677635 84.30183152 110.38676523 101 120 C101 120.99 101 121.98 101 123 C98.96484375 124.5859375 98.96484375 124.5859375 95.9375 126.375 C95.09529907 126.87676758 95.09529907 126.87676758 94.23608398 127.38867188 C85.47838414 132.55977616 76.57856517 137.49509235 67.7109375 142.47412109 C63.98562132 144.57095342 60.27207168 146.68796737 56.5625 148.8125 C55.47066406 149.43769531 54.37882813 150.06289063 53.25390625 150.70703125 C52.51011719 151.13371094 51.76632812 151.56039062 51 152 C53.97027639 154.32354369 57.03095433 156.24818761 60.3046875 158.1171875 C61.35350098 158.71845459 62.40231445 159.31972168 63.48291016 159.93920898 C64.6022998 160.57802002 65.72168945 161.21683105 66.875 161.875 C69.2145863 163.21563163 71.55279313 164.55865541 73.890625 165.90234375 C74.48158966 166.24183548 75.07255432 166.58132721 75.681427 166.93110657 C84.83911017 172.19937889 93.91883266 177.60124464 103 183 C100.04996214 185.30552433 97.01454714 187.22399315 93.765625 189.08203125 C92.21101563 189.97438477 92.21101563 189.97438477 90.625 190.88476562 C89.51125 191.52091797 88.3975 192.15707031 87.25 192.8125 C84.87950415 194.1719515 82.51010527 195.53331061 80.140625 196.89453125 C79.53980103 197.23936554 78.93897705 197.58419983 78.31994629 197.93948364 C72.52993969 201.26447175 66.76324502 204.62886337 61 208 C54.88471135 211.57355562 48.76547828 215.13992354 42.6328125 218.68359375 C41.5617627 219.30274658 40.49071289 219.92189941 39.38720703 220.55981445 C37.222631 221.80571733 35.05435231 223.04521066 32.88232422 224.27807617 C27.7629622 227.19306592 22.70150432 230.15318357 17.75808716 233.35673523 C15.45277824 234.84560808 13.12599138 236.29886567 10.79681396 237.75003052 C9.16818425 238.78505559 7.57189651 239.87042678 5.97705078 240.95678711 C2.93763477 242.83678021 0.48233452 244.18432062 -3 245 C-7.59161454 243.88962647 -11.09567646 241.59670977 -15 239 C-16.8307637 237.95055765 -18.66664199 236.90998147 -20.5078125 235.87890625 C-22.38231326 234.77701051 -24.25463557 233.67140225 -26.125 232.5625 C-28.23402286 231.32231764 -30.34341061 230.08275562 -32.453125 228.84375 C-33.53142578 228.20953125 -34.60972656 227.5753125 -35.72070312 226.921875 C-41.08994741 223.77515887 -46.48208739 220.66842347 -51.875 217.5625 C-53.48604614 216.63401245 -53.48604614 216.63401245 -55.12963867 215.68676758 C-57.31531571 214.42721106 -59.50110715 213.16785302 -61.68701172 211.90869141 C-67.27171084 208.69121331 -72.85465015 205.4706855 -78.4375 202.25 C-80.0447998 201.3228418 -80.0447998 201.3228418 -81.68457031 200.37695312 C-91.128856 194.92799198 -100.56618533 189.46706609 -110 184 C-107.56968847 181.29942934 -104.94322326 179.67122832 -101.79296875 177.8828125 C-100.74093262 177.28154541 -99.68889648 176.68027832 -98.60498047 176.06079102 C-97.47721191 175.42197998 -96.34944336 174.78316895 -95.1875 174.125 C-92.83852324 172.78485799 -90.49155863 171.44120861 -88.14453125 170.09765625 C-87.55047485 169.75816452 -86.95641846 169.41867279 -86.34436035 169.06889343 C-80.32152656 165.62268368 -74.34406433 162.1009371 -68.375 158.5625 C-67.42778076 158.00127441 -66.48056152 157.44004883 -65.50463867 156.86181641 C-63.33573026 155.57570959 -61.16745583 154.28855282 -59 153 C-61.2785638 150.50222912 -63.59764627 148.95135484 -66.55078125 147.3203125 C-67.46706299 146.80968262 -68.38334473 146.29905273 -69.32739258 145.77294922 C-70.31247803 145.22912598 -71.29756348 144.68530273 -72.3125 144.125 C-74.38630254 142.96512414 -76.45919481 141.80361952 -78.53125 140.640625 C-80.12839844 139.7444043 -80.12839844 139.7444043 -81.7578125 138.83007812 C-86.96853463 135.88884521 -92.14769362 132.89601378 -97.3125 129.875 C-98.25456299 129.33117676 -99.19662598 128.78735352 -100.16723633 128.22705078 C-101.03630615 127.7164209 -101.90537598 127.20579102 -102.80078125 126.6796875 C-103.56559814 126.23351074 -104.33041504 125.78733398 -105.1184082 125.32763672 C-107 124 -107 124 -109 121 C-100.012439 115.38546961 -90.91060418 110.02859065 -81.6875 104.8125 C-72.37890561 99.5797233 -72.37890561 99.5797233 -63.26953125 94.01171875 C-60 92 -60 92 -58 92 C-60.53694786 89.1378719 -63.39384595 87.49318479 -66.71484375 85.62890625 C-67.27867264 85.31019058 -67.84250153 84.99147491 -68.42341614 84.6631012 C-69.63259876 83.97989828 -70.84293903 83.29874092 -72.05432129 82.6194458 C-75.22405703 80.84041184 -78.38301811 79.04243247 -81.54296875 77.24609375 C-82.17514313 76.88713013 -82.8073175 76.5281665 -83.45864868 76.1583252 C-89.25271201 72.8649264 -95.01738598 69.52440664 -100.75 66.125 C-101.59425537 65.63201416 -102.43851074 65.13902832 -103.30834961 64.63110352 C-104.06768799 64.17791748 -104.82702637 63.72473145 -105.609375 63.2578125 C-106.26905273 62.8673877 -106.92873047 62.47696289 -107.60839844 62.07470703 C-108.29724121 61.54272705 -108.29724121 61.54272705 -109 61 C-109 60.34 -109 59.68 -109 59 C-76.3984375 40.19140625 -76.3984375 40.19140625 -73.19238281 38.34179688 C-71.04845933 37.10489272 -68.90457974 35.86791246 -66.76074219 34.63085938 C-61.31807441 31.49041883 -55.87464455 28.35131366 -50.4296875 25.21484375 C-38.39407851 18.27988723 -26.37436389 11.31922349 -14.38623047 4.30249023 C-13.44408691 3.75149658 -12.50194336 3.20050293 -11.53125 2.6328125 C-10.70173828 2.14699707 -9.87222656 1.66118164 -9.01757812 1.16064453 C-5.39676306 -0.92228805 -4.09029364 -1.10955521 0 0 Z " fill="#A4C7FF" transform="translate(244,176)"/>
<path d="M0 0 C2.51015203 1.3013461 4.85719241 2.63636946 7.25 4.125 C8.73861815 5.02633559 10.22827573 5.92595583 11.71875 6.82421875 C12.54375 7.32356934 13.36875 7.82291992 14.21875 8.33740234 C19.68839654 11.60709098 25.2245872 14.76330619 30.75 17.9375 C32.9742389 19.21696031 35.19821297 20.49688113 37.421875 21.77734375 C38.37674805 22.32640381 39.33162109 22.87546387 40.31542969 23.44116211 C43 25 43 25 45.53613281 26.76391602 C47.90777887 28.20525167 47.90777887 28.20525167 50.45898438 27.88598633 C53.45437459 26.84157135 55.9416569 25.46950174 58.65625 23.82421875 C59.75179199 23.16607178 60.84733398 22.5079248 61.97607422 21.82983398 C62.55129822 21.47992401 63.12652222 21.13001404 63.71917725 20.76950073 C65.51527426 19.6782196 67.31730442 18.59747044 69.12158203 17.51977539 C73.83185118 14.70579178 78.53553237 11.88088943 83.23730469 9.05273438 C86.10830997 7.33327093 88.98981931 5.63303556 91.875 3.9375 C92.72900391 3.41953857 93.58300781 2.90157715 94.46289062 2.36791992 C95.25630859 1.90490479 96.04972656 1.44188965 96.8671875 0.96484375 C97.54894043 0.5587085 98.23069336 0.15257324 98.93310547 -0.26586914 C101.72749562 -1.25839586 103.17994135 -0.88613813 106 0 C107.98213048 0.9779644 109.92655389 2.03401869 111.83984375 3.140625 C112.97583008 3.79353516 114.11181641 4.44644531 115.28222656 5.11914062 C116.50078134 5.82920352 117.71920316 6.53949463 118.9375 7.25 C120.18558402 7.97120241 121.43395921 8.69190115 122.68261719 9.41210938 C133.83712069 15.85786779 144.93551115 22.4010922 156 29 C153.04996214 31.30552433 150.01454714 33.22399315 146.765625 35.08203125 C145.72921875 35.67693359 144.6928125 36.27183594 143.625 36.88476562 C142.51125 37.52091797 141.3975 38.15707031 140.25 38.8125 C137.87950415 40.1719515 135.51010527 41.53331061 133.140625 42.89453125 C132.53980103 43.23936554 131.93897705 43.58419983 131.31994629 43.93948364 C125.52993969 47.26447175 119.76324502 50.62886337 114 54 C107.88471135 57.57355562 101.76547828 61.13992354 95.6328125 64.68359375 C94.02623779 65.612323 94.02623779 65.612323 92.38720703 66.55981445 C90.222631 67.80571733 88.05435231 69.04521066 85.88232422 70.27807617 C80.7629622 73.19306592 75.70150432 76.15318357 70.75808716 79.35673523 C68.45277824 80.84560808 66.12599138 82.29886567 63.79681396 83.75003052 C62.16818425 84.78505559 60.57189651 85.87042678 58.97705078 86.95678711 C55.93763477 88.83678021 53.48233452 90.18432062 50 91 C45.40838546 89.88962647 41.90432354 87.59670977 38 85 C36.1692363 83.95055765 34.33335801 82.90998147 32.4921875 81.87890625 C30.61768674 80.77701051 28.74536443 79.67140225 26.875 78.5625 C24.76597714 77.32231764 22.65658939 76.08275562 20.546875 74.84375 C19.46857422 74.20953125 18.39027344 73.5753125 17.27929688 72.921875 C11.91005259 69.77515887 6.51791261 66.66842347 1.125 63.5625 C0.05096924 62.9435083 -1.02306152 62.3245166 -2.12963867 61.68676758 C-4.31531571 60.42721106 -6.50110715 59.16785302 -8.68701172 57.90869141 C-14.27171084 54.69121331 -19.85465015 51.4706855 -25.4375 48.25 C-26.5090332 47.63189453 -27.58056641 47.01378906 -28.68457031 46.37695312 C-38.128856 40.92799198 -47.56618533 35.46706609 -57 30 C-54.56968847 27.29942934 -51.94322326 25.67122832 -48.79296875 23.8828125 C-47.74141602 23.28146484 -46.68986328 22.68011719 -45.60644531 22.06054688 C-44.47819336 21.42181641 -43.34994141 20.78308594 -42.1875 20.125 C-39.83059598 18.78636443 -37.47533241 17.44487968 -35.12109375 16.1015625 C-34.52579865 15.76227722 -33.93050354 15.42299194 -33.31716919 15.07342529 C-29.36733694 12.81203053 -25.47218535 10.47501832 -21.59765625 8.0859375 C-20.60934814 7.48120605 -19.62104004 6.87647461 -18.6027832 6.25341797 C-16.73755015 5.10698204 -14.88018255 3.94762334 -13.03198242 2.77392578 C-5.19277199 -2.01148585 -5.19277199 -2.01148585 0 0 Z " fill="#2466D1" transform="translate(191,330)"/>
<path d="M0 0 C2.93529138 1.54918987 5.58883679 3.39553973 8.33227539 5.26391602 C11.07389808 6.8385734 13.86257951 8.32490385 16.64477539 9.82641602 C21.89794637 12.71283577 27.07996028 15.69406796 32.20727539 18.79907227 C33.19429443 19.39453857 34.18131348 19.99000488 35.19824219 20.60351562 C37.13267966 21.77565426 39.06146329 22.95718526 40.98388672 24.14892578 C41.86842529 24.68445068 42.75296387 25.21997559 43.66430664 25.77172852 C44.44523682 26.25270996 45.22616699 26.73369141 46.03076172 27.22924805 C48.70820044 28.4329168 50.42552843 28.57640307 53.33227539 28.26391602 C55.84481753 26.99721328 58.14502623 25.69000486 60.51977539 24.20141602 C62.02006633 23.28959397 63.52144522 22.37956053 65.02368164 21.47094727 C65.85528809 20.96515137 66.68689453 20.45935547 67.54370117 19.93823242 C72.39911358 17.02294453 77.31287018 14.20811122 82.22280884 11.38601685 C83.92691953 10.40636683 85.6299736 9.42487956 87.33300781 8.44335938 C89.422443 7.23916283 91.51480101 6.04001783 93.6105957 4.84692383 C95.25740334 3.88909277 96.88799496 2.90142441 98.48364258 1.8605957 C100.29321289 0.69360352 100.29321289 0.69360352 103.33227539 -0.73608398 C106.77559482 0.34525143 109.8367538 2.00789997 112.97290039 3.77563477 C113.8674292 4.2794165 114.76195801 4.78319824 115.68359375 5.30224609 C116.64015869 5.84647217 117.59672363 6.39069824 118.58227539 6.95141602 C119.57557861 7.5143335 120.56888184 8.07725098 121.59228516 8.65722656 C133.29223603 15.32507768 144.81886223 22.28013156 156.33227539 29.26391602 C152.98630953 32.84260152 149.84010351 35.35591157 145.53540039 37.68188477 C144.42092529 38.2909668 143.3064502 38.90004883 142.15820312 39.52758789 C141.57481171 39.84139404 140.99142029 40.1552002 140.39035034 40.47851562 C137.31581499 42.13288103 134.25705084 43.81604938 131.19555664 45.49438477 C130.59224014 45.82405243 129.98892365 46.15372009 129.36732483 46.49337769 C124.7840595 49.00147943 120.25749522 51.58934704 115.76977539 54.26391602 C108.80393636 58.40748698 101.79441904 62.47079314 94.76977539 66.51391602 C85.83933265 71.65711666 76.92111814 76.82049852 68.01977539 82.01391602 C67.01809326 82.59818359 66.01641113 83.18245117 64.984375 83.78442383 C59.82715964 86.7571413 59.82715964 86.7571413 54.84326172 90.00317383 C52.33227539 91.26391602 52.33227539 91.26391602 49.82568359 91.11816406 C47.12944385 90.19442541 44.88709375 89.05447897 42.43774414 87.59594727 C41.49374756 87.03907227 40.54975098 86.48219727 39.57714844 85.90844727 C38.56821533 85.30387695 37.55928223 84.69930664 36.51977539 84.07641602 C34.36361177 82.80153034 32.20735913 81.52679519 30.05102539 80.25219727 C28.9437207 79.59429199 27.83641602 78.93638672 26.69555664 78.25854492 C21.31787454 75.06925465 15.91921287 71.91618383 10.51977539 68.76391602 C9.08251099 67.92050659 9.08251099 67.92050659 7.61621094 67.06005859 C3.06543772 64.39807621 -1.50420453 61.79018339 -6.14038086 59.27954102 C-11.92929321 56.1441159 -17.61476628 52.84517686 -23.29272461 49.51391602 C-24.32800293 48.90700928 -25.36328125 48.30010254 -26.42993164 47.67480469 C-28.51786664 46.45079272 -30.60559827 45.22643377 -32.69311523 44.00170898 C-35.43300814 42.40103944 -38.18083426 40.81540745 -40.93334961 39.23657227 C-41.71887207 38.78314453 -42.50439453 38.3297168 -43.3137207 37.86254883 C-44.7615212 37.02716953 -46.21222352 36.19679212 -47.66625977 35.37231445 C-50.81593467 33.54542337 -52.61352572 32.34521435 -54.66772461 29.26391602 C-46.31552237 24.05312872 -37.88632817 19.01850271 -29.32836914 14.15405273 C-27.53510111 13.13458206 -25.74385962 12.11162086 -23.95288086 11.08813477 C-21.6307714 9.76173804 -19.30313235 8.44720384 -16.97119141 7.13793945 C-14.80718949 5.91032297 -12.65918124 4.65397133 -10.53027344 3.36645508 C-9.56887451 2.79894531 -8.60747559 2.23143555 -7.61694336 1.64672852 C-6.77993896 1.13770996 -5.94293457 0.62869141 -5.08056641 0.10424805 C-2.66772461 -0.73608398 -2.66772461 -0.73608398 0 0 Z " fill="#609DFE" transform="translate(189.667724609375,267.736083984375)"/>
<path d="M0 0 C7.92 0 15.84 0 24 0 C27.44594618 8.11962714 30.63228457 16.27619439 33.59765625 24.58203125 C34.25336837 26.40604683 34.90908215 28.23006182 35.5648613 30.05405331 C36.25744378 31.9821288 36.94857162 33.9107198 37.63925171 35.83947754 C39.82368617 41.93931181 42.01693614 48.03597862 44.20950508 54.13289261 C44.71169207 55.52949472 45.21376033 56.92613953 45.71571159 58.32282639 C49.3855473 68.53419807 53.0764673 78.73769131 56.7890625 88.93359375 C57.01947927 89.5664712 57.24989605 90.19934864 57.48729515 90.85140419 C59.48344725 96.3334866 61.48129124 101.81495034 63.48147583 107.29556274 C64.69040714 110.60816053 65.89798321 113.92125001 67.10546875 117.234375 C67.45763458 118.19738022 67.80980042 119.16038544 68.17263794 120.15257263 C68.50262787 121.05838577 68.8326178 121.96419891 69.17260742 122.89746094 C69.45488693 123.67055603 69.73716644 124.44365112 70.02799988 125.24017334 C71.4024578 129.14270951 72.69160697 133.07482092 74 137 C67.73 137 61.46 137 55 137 C53.46610596 132.87541535 51.93491039 128.75001651 50.41015625 124.62207031 C49.89181091 123.22111954 49.37198351 121.82071612 48.85058594 120.42089844 C48.09690406 118.39664173 47.34875937 116.37040808 46.6015625 114.34375 C45.92601318 112.52133789 45.92601318 112.52133789 45.23681641 110.66210938 C43.94592581 106.83989087 42.97846677 102.91386709 42 99 C22.2 99.33 2.4 99.66 -18 100 C-22.29 112.21 -26.58 124.42 -31 137 C-36.94 137 -42.88 137 -49 137 C-46.9919517 129.25251821 -44.59263928 121.80988306 -41.78125 114.3203125 C-41.37064835 113.21375809 -40.96004669 112.10720367 -40.53700256 110.96711731 C-39.65419822 108.58860295 -38.76942118 106.21081999 -37.88284302 103.83370972 C-35.51392214 97.48039283 -33.16076312 91.12125294 -30.80859375 84.76171875 C-30.56789595 84.11134958 -30.32719814 83.46098042 -30.07920647 82.79090309 C-24.0001898 66.35950129 -18.10010024 49.86492741 -12.21875 33.36181641 C-8.23988225 22.20345494 -4.19827882 11.07786725 0 0 Z " fill="#010101" transform="translate(463,214)"/>
<path d="M0 0 C9.24 0 18.48 0 28 0 C29.16015625 2.27132812 30.3203125 4.54265625 31.515625 6.8828125 C42.29111786 27.94731935 42.29111786 27.94731935 53.52050781 48.77197266 C58.4941377 57.80393454 63.18769383 66.97841928 67.86767578 76.16503906 C73.70480293 87.57279936 79.85473516 98.73368113 86 110 C86.33 73.7 86.66 37.4 87 0 C92.28 0 97.56 0 103 0 C103 45.21 103 90.42 103 137 C95.74 137 88.48 137 81 137 C79.69289063 134.45925781 79.69289063 134.45925781 78.359375 131.8671875 C72.69969594 120.89360528 67.02468139 109.93835918 61.0625 99.125 C56.3954898 90.65681214 51.91904865 82.09913173 47.5 73.5 C42.61493837 63.9946447 37.65469153 54.54036747 32.47070312 45.19335938 C27.13851318 35.5473075 22.12026027 25.77504234 17 16 C16.67 55.93 16.34 95.86 16 137 C10.72 137 5.44 137 0 137 C0 91.79 0 46.58 0 0 Z " fill="#000000" transform="translate(833,214)"/>
<path d="M0 0 C0 7.26 0 14.52 0 22 C-2.98216332 20.50891834 -5.81103181 18.93704442 -8.66918945 17.23291016 C-27.10004182 6.33674699 -46.58484645 1.94105087 -67.9140625 5.6875 C-74.28554103 7.66315226 -79.7922341 10.8599772 -85 15 C-85.61488281 15.47824219 -86.22976563 15.95648438 -86.86328125 16.44921875 C-96.73362827 25.13775038 -101.21829532 39.43144829 -102.15966797 52.15869141 C-102.67733116 62.13176268 -102.00194827 71.40936008 -99 81 C-98.73316406 81.86882812 -98.46632813 82.73765625 -98.19140625 83.6328125 C-94.28919995 94.69773525 -87.25923331 103.32105788 -77 109 C-59.7790107 117.1968901 -39.80164526 115.50634741 -22 110 C-20.35 109.67 -18.7 109.34 -17 109 C-17 97.78 -17 86.56 -17 75 C-29.21 75 -41.42 75 -54 75 C-54 69.72 -54 64.44 -54 59 C-36.18 59 -18.36 59 0 59 C0 78.47 0 97.94 0 118 C-7.13664669 121.24393031 -13.63750779 124.04849277 -21.0625 126.1875 C-21.88298828 126.43435547 -22.70347656 126.68121094 -23.54882812 126.93554688 C-45.48652673 133.39794827 -68.99403121 133.10908731 -89.60571289 122.27099609 C-103.78277037 114.26620094 -113.27218357 101.39498963 -117.9375 85.8828125 C-123.57917037 64.12983347 -123.37035115 39.56207945 -112.2421875 19.6015625 C-109.14816442 14.43039509 -105.34238141 10.15694164 -101 6 C-100.39929688 5.36835938 -99.79859375 4.73671875 -99.1796875 4.0859375 C-73.09346978 -21.54857082 -29.76872981 -12.75802706 0 0 Z " fill="#010101" transform="translate(800,223)"/>
<path d="M0 0 C3.16423371 -0.32320387 6.32422854 -0.5157764 9.5 -0.6875 C10.386875 -0.77966797 11.27375 -0.87183594 12.1875 -0.96679688 C15.11898209 -1.08534946 17.21742086 -0.95600307 20 0 C23.37966896 3.23092396 25.61543704 7.00309144 28 11 C29.28351435 12.97197139 30.569974 14.94202889 31.859375 16.91015625 C33.15926306 18.959029 34.45606733 21.00986103 35.75 23.0625 C42.35887182 33.47287331 49.1060399 43.77657054 56 54 C60.10726555 52.63091148 61.39612043 49.83431773 63.6484375 46.3515625 C64.09791245 45.671008 64.54738739 44.99045349 65.01048279 44.28927612 C66.47257849 42.07253262 67.92362717 39.84877533 69.375 37.625 C70.86827824 35.35665508 72.36442819 33.09022132 73.86061096 30.8237915 C74.85102043 29.32291795 75.84047377 27.82141302 76.82896423 26.3192749 C80.76541761 20.33903971 84.76080717 14.40294834 88.8125 8.5 C89.33827637 7.73123535 89.86405273 6.9624707 90.40576172 6.17041016 C93.86221671 1.13778329 93.86221671 1.13778329 95 0 C96.41570123 -0.08651611 97.835595 -0.10704904 99.25390625 -0.09765625 C100.53491211 -0.09282227 100.53491211 -0.09282227 101.84179688 -0.08789062 C103.18854492 -0.07532227 103.18854492 -0.07532227 104.5625 -0.0625 C105.46419922 -0.05798828 106.36589844 -0.05347656 107.29492188 -0.04882812 C109.53001314 -0.03700225 111.76497437 -0.0205222 114 0 C111.19977119 5.07705036 108.13292502 9.7955574 104.75 14.5 C103.68023458 16.00206674 102.61126756 17.50470232 101.54296875 19.0078125 C100.68711182 20.21099121 100.68711182 20.21099121 99.81396484 21.43847656 C95.16454719 28.00397994 90.58522501 34.61857055 86.0078125 41.234375 C83.38817594 45.0181531 80.73658706 48.77575303 78.0546875 52.515625 C76.84895704 54.21874908 75.64322781 55.92187404 74.4375 57.625 C73.8710376 58.40020996 73.3045752 59.17541992 72.72094727 59.97412109 C71.95995728 61.05814209 71.95995728 61.05814209 71.18359375 62.1640625 C70.73556396 62.78748535 70.28753418 63.4109082 69.82592773 64.05322266 C68.66947721 66.77906851 69.09819582 68.20419497 70 71 C71.35010104 73.52030758 71.35010104 73.52030758 73.10546875 76.03515625 C73.75241699 76.99945557 74.39936523 77.96375488 75.06591797 78.95727539 C75.76604004 79.98199951 76.46616211 81.00672363 77.1875 82.0625 C78.26475342 83.65856079 78.26475342 83.65856079 79.36376953 85.28686523 C84.5331935 92.92038508 89.79893849 100.48536942 95.10766602 108.02246094 C98.66984052 113.08230355 102.18529846 118.16851782 105.625 123.3125 C106.01478027 123.89265869 106.40456055 124.47281738 106.80615234 125.07055664 C109.38750255 128.95623387 111.72160452 132.93290943 114 137 C110.71337393 137.4717211 107.43529784 137.7501662 104.125 138 C103.2071875 138.1340625 102.289375 138.268125 101.34375 138.40625 C98.00169422 138.59453483 96.06445966 138.39699306 93 137 C89.46257887 132.75714533 86.92678948 128.13454934 84.29425049 123.29553223 C82.17767965 119.54150114 79.76602878 115.99657436 77.3515625 112.4296875 C76.39933982 111.00547553 75.44751725 109.58099597 74.49609375 108.15625 C73.53912337 106.72912585 72.58209167 105.30204281 71.625 103.875 C70.64430945 102.40900252 69.66384004 100.94285708 68.68359375 99.4765625 C65.41426143 94.58675216 65.41426143 94.58675216 62.1350708 89.70355225 C61.37304267 88.55987492 60.62145865 87.40917513 59.88006592 86.25201416 C57.94693695 83.10029237 57.94693695 83.10029237 55 81 C54.72704102 81.73992187 54.45408203 82.47984375 54.17285156 83.2421875 C53.07013041 85.8350972 51.87168914 87.8451132 50.234375 90.125 C49.68080322 90.90375488 49.12723145 91.68250977 48.55688477 92.48486328 C47.96061279 93.3148584 47.36434082 94.14485352 46.75 95 C40.97988353 103.12859982 35.37550196 111.34893421 29.88378906 119.66796875 C28.80761301 121.29545128 27.72174503 122.91657132 26.62573242 124.53076172 C25.48908193 126.25715954 24.41257205 128.02398304 23.3840332 129.81689453 C19.29645501 136.56291953 19.29645501 136.56291953 15.66674805 137.78662109 C13.05933922 137.98420209 10.66350774 137.88213385 8.0625 137.625 C7.18787109 137.57988281 6.31324219 137.53476562 5.41210938 137.48828125 C3.27174469 137.37132143 1.13494603 137.19195319 -1 137 C1.89153087 131.31664622 5.19854101 126.22127613 9 121.125 C13.76269419 114.73943192 18.31427197 108.23823102 22.78417969 101.64477539 C25.93254337 97.00657768 29.11696915 92.39776008 32.34765625 87.81640625 C33.07895752 86.77677734 33.81025879 85.73714844 34.5637207 84.66601562 C35.99886225 82.62877171 37.43866001 80.59479832 38.88354492 78.56445312 C39.53556885 77.63697266 40.18759277 76.70949219 40.859375 75.75390625 C41.44170898 74.93220947 42.02404297 74.1105127 42.62402344 73.26391602 C43.94356779 71.09284881 44.68994979 69.51277508 45 67 C43.7687543 64.70512741 43.7687543 64.70512741 41.8125 62.375 C38.25219536 57.70745285 34.91660451 52.96476171 31.6875 48.0625 C25.42727319 38.6001853 19.05473159 29.2158323 12.67456055 19.83422852 C10.44683312 16.5580983 8.22255168 13.27964436 6 10 C5.3719043 9.07461426 4.74380859 8.14922852 4.09667969 7.19580078 C3.54657227 6.37966309 2.99646484 5.56352539 2.4296875 4.72265625 C1.95515137 4.02019775 1.48061523 3.31773926 0.99169922 2.59399414 C0 1 0 1 0 0 Z " fill="#030303" transform="translate(548,214)"/>
<path d="M0 0 C2.86453321 1.4322666 2.95291124 3.10379335 4.01538086 6.09545898 C4.40596176 7.18426865 4.79654266 8.27307831 5.19895935 9.3948822 C5.6167012 10.58328201 6.03444305 11.77168182 6.46484375 12.99609375 C7.11580772 14.822864 7.11580772 14.822864 7.77992249 16.6865387 C8.70139823 19.27344082 9.61806081 21.86197953 10.53100586 24.4519043 C11.69212254 27.74565134 12.86152138 31.03637281 14.03420162 34.32601833 C15.16005512 37.4857656 16.28122123 40.64716453 17.40234375 43.80859375 C17.81806137 44.97877548 18.23377899 46.14895721 18.66209412 47.354599 C19.05582718 48.47177811 19.44956024 49.58895721 19.85522461 50.73999023 C20.36913002 52.19440773 20.36913002 52.19440773 20.89341736 53.6782074 C22.36204826 58.08681374 23.66475381 62.54917938 25 67 C9.16 67 -6.68 67 -23 67 C-20.74991092 56.87459916 -20.74991092 56.87459916 -19.06054688 52.19238281 C-18.68675903 51.1481012 -18.31297119 50.10381958 -17.92785645 49.02789307 C-17.32934875 47.38213287 -17.32934875 47.38213287 -16.71875 45.703125 C-16.30459839 44.55132751 -15.89044678 43.39953003 -15.46374512 42.21282959 C-14.14759718 38.55669088 -12.82381058 34.90337023 -11.5 31.25 C-10.61019581 28.78012125 -9.72086808 26.31007079 -8.83203125 23.83984375 C-7.20394707 19.32223607 -5.57523106 14.80486725 -3.93945312 10.29003906 C-3.6123938 9.38674866 -3.28533447 8.48345825 -2.94836426 7.55279541 C-2.00649236 5.01747606 -1.0154168 2.50666477 0 0 Z " fill="#FAFAFA" transform="translate(474,230)"/>
</svg>
